<mxfile host="app.diagrams.net" modified="2022-10-01T10:26:20.661Z" agent="5.0 (Windows NT 10.0; Win64; x64) AppleWebKit/537.36 (KHTML, like Gecko) Chrome/105.0.0.0 Safari/537.36" etag="fm_UDeREMssThwqlOvZS" version="20.4.0" type="github">
  <diagram id="JU9DDJ70HN2GQwt9_eKq" name="Page-1">
    <mxGraphModel dx="1209" dy="577" grid="1" gridSize="10" guides="1" tooltips="1" connect="1" arrows="1" fold="1" page="1" pageScale="1" pageWidth="850" pageHeight="1100" math="0" shadow="0">
      <root>
        <mxCell id="0" />
        <mxCell id="1" parent="0" />
      </root>
    </mxGraphModel>
  </diagram>
</mxfile>
